<svg width="224" height="64" viewBox="0 0 224 64" fill="none" xmlns="http://www.w3.org/2000/svg">
<path d="M35.1184 0C15.7237 0 0 15.7237 0 35.1184C0 43.1182 2.6738 50.4952 7.17637 56.4008L7.79887 55.9662C3.6884 50.5067 1.245 43.7239 1.245 36.3634C1.245 18.3401 15.86 3.72326 33.8851 3.72326C43.9829 3.72326 53.0092 8.31103 58.9965 15.5155C60.5277 13.4417 60.9104 12.1067 60.8992 11.2872C54.4845 4.34846 45.3128 0 35.1184 0ZM34.9774 41.1789C24.705 41.1789 18.5763 49.8458 17.2421 51.9493C18.7305 50.9273 23.8615 47.7798 30.8783 47.7798C33.0674 47.7798 35.4459 48.0892 37.949 48.8603C48.0784 51.9915 57.8546 52.4037 57.9512 52.4074L57.9747 52.6188C57.9022 52.643 57.1056 52.8772 54.9444 52.8772C51.9879 52.8772 46.4863 52.4234 36.8214 50.3403C34.8944 49.9259 33.0337 49.753 31.2777 49.753C21.7299 49.753 15.0316 54.9301 14.9517 54.9914L9.19655 58.9613L11.3577 60.9815C11.8241 60.3497 14.3461 57.1407 17.3008 57.1407C17.5814 57.1407 17.8603 57.1616 18.1465 57.223C19.1072 57.4311 20.3027 58.022 21.8227 58.7616C26.0781 60.8354 32.5135 63.974 43.1874 64H43.2461C56.9954 64 65.3521 52.1669 67.4296 48.8369C67.3962 48.8554 67.3512 48.8788 67.3122 48.8956C66.7937 49.165 65.9549 49.4006 64.5873 49.4006C61.3613 49.4006 55.2085 48.1219 43.481 43.0582C40.3907 41.7277 37.5548 41.1789 34.9774 41.1789Z" fill="#7C8F52"/>
<path d="M46.9473 40.9929C47.3989 40.4949 47.882 40.0062 48.4024 39.5249C56.1773 32.3149 61.4195 24.0586 61.4696 23.9769L61.6666 24.0568C61.6313 24.2333 60.6167 28.5556 49.1234 41.242C48.9821 41.3999 48.8576 41.5616 48.722 41.7195C55.0549 44.2635 59.3196 45.4361 62.016 45.8951C62.7277 44.8637 63.4338 43.7562 64.1307 42.5558C71.0787 30.5923 65.0914 17.6197 63.1272 13.985C63.1569 15.9455 60.927 20.8234 46.1408 31.8262C43.333 33.9167 41.4041 36.2005 40.1145 38.5308C41.6271 38.8801 43.1825 39.3818 44.7713 40.0675C45.5202 40.3927 46.2449 40.6993 46.9473 40.9929Z" fill="#B1C685"/>
<path d="M83.4637 43.5H78.191L86.2251 20.2273H92.566L100.589 43.5H95.316L89.4864 25.5455H89.3046L83.4637 43.5ZM83.1342 34.3523H95.5887V38.1932H83.1342V34.3523ZM103.393 43.5V26.0455H108.234V43.5H103.393ZM105.825 23.7955C105.105 23.7955 104.487 23.5568 103.972 23.0795C103.465 22.5947 103.211 22.0152 103.211 21.3409C103.211 20.6742 103.465 20.1023 103.972 19.625C104.487 19.1402 105.105 18.8977 105.825 18.8977C106.544 18.8977 107.158 19.1402 107.665 19.625C108.181 20.1023 108.438 20.6742 108.438 21.3409C108.438 22.0152 108.181 22.5947 107.665 23.0795C107.158 23.5568 106.544 23.7955 105.825 23.7955ZM112.111 43.5V26.0455H116.805V29.0909H116.986C117.305 28.0076 117.839 27.1894 118.589 26.6364C119.339 26.0758 120.202 25.7955 121.18 25.7955C121.422 25.7955 121.683 25.8106 121.964 25.8409C122.244 25.8712 122.49 25.9129 122.702 25.9659V30.2614C122.475 30.1932 122.161 30.1326 121.759 30.0795C121.358 30.0265 120.99 30 120.657 30C119.945 30 119.308 30.1553 118.748 30.4659C118.195 30.7689 117.755 31.1932 117.43 31.7386C117.111 32.2841 116.952 32.9129 116.952 33.625V43.5H112.111ZM125.296 43.5V20.2273H134.614C136.326 20.2273 137.754 20.4811 138.898 20.9886C140.042 21.4962 140.902 22.2008 141.478 23.1023C142.054 23.9962 142.342 25.0265 142.342 26.1932C142.342 27.1023 142.16 27.9015 141.796 28.5909C141.432 29.2727 140.932 29.8333 140.296 30.2727C139.667 30.7045 138.948 31.0114 138.137 31.1932V31.4205C139.023 31.4583 139.853 31.7083 140.626 32.1705C141.406 32.6326 142.039 33.2803 142.523 34.1136C143.008 34.9394 143.251 35.9242 143.251 37.0682C143.251 38.303 142.944 39.4053 142.33 40.375C141.724 41.3371 140.826 42.0985 139.637 42.6591C138.448 43.2197 136.982 43.5 135.239 43.5H125.296ZM130.217 39.4773H134.228C135.599 39.4773 136.599 39.2159 137.228 38.6932C137.857 38.1629 138.171 37.4583 138.171 36.5795C138.171 35.9356 138.016 35.3674 137.705 34.875C137.395 34.3826 136.951 33.9962 136.376 33.7159C135.807 33.4356 135.129 33.2955 134.342 33.2955H130.217V39.4773ZM130.217 29.9659H133.864C134.539 29.9659 135.137 29.8485 135.66 29.6136C136.19 29.3712 136.607 29.0303 136.91 28.5909C137.22 28.1515 137.376 27.625 137.376 27.0114C137.376 26.1705 137.076 25.4924 136.478 24.9773C135.887 24.4621 135.046 24.2045 133.955 24.2045H130.217V29.9659ZM154.316 43.8409C152.521 43.8409 150.975 43.4773 149.68 42.75C148.392 42.0152 147.399 40.9773 146.702 39.6364C146.005 38.2879 145.657 36.6932 145.657 34.8523C145.657 33.0568 146.005 31.4811 146.702 30.125C147.399 28.7689 148.38 27.7121 149.646 26.9545C150.918 26.197 152.411 25.8182 154.123 25.8182C155.274 25.8182 156.346 26.0038 157.339 26.375C158.339 26.7386 159.21 27.2879 159.952 28.0227C160.702 28.7576 161.286 29.6818 161.702 30.7955C162.119 31.9015 162.327 33.197 162.327 34.6818V36.0114H147.589V33.0114H157.771C157.771 32.3144 157.619 31.697 157.316 31.1591C157.013 30.6212 156.593 30.2008 156.055 29.8977C155.524 29.5871 154.907 29.4318 154.202 29.4318C153.468 29.4318 152.816 29.6023 152.248 29.9432C151.687 30.2765 151.248 30.7273 150.93 31.2955C150.611 31.8561 150.449 32.4811 150.441 33.1705V36.0227C150.441 36.8864 150.6 37.6326 150.918 38.2614C151.244 38.8902 151.702 39.375 152.293 39.7159C152.884 40.0568 153.585 40.2273 154.396 40.2273C154.933 40.2273 155.426 40.1515 155.873 40C156.32 39.8485 156.702 39.6212 157.021 39.3182C157.339 39.0152 157.581 38.6439 157.748 38.2045L162.225 38.5C161.998 39.5758 161.532 40.5152 160.827 41.3182C160.13 42.1136 159.229 42.7348 158.123 43.1818C157.024 43.6212 155.755 43.8409 154.316 43.8409ZM170.464 43.8295C169.35 43.8295 168.358 43.6364 167.486 43.25C166.615 42.8561 165.926 42.2765 165.418 41.5114C164.918 40.7386 164.668 39.7765 164.668 38.625C164.668 37.6553 164.846 36.8409 165.202 36.1818C165.558 35.5227 166.043 34.9924 166.657 34.5909C167.271 34.1894 167.968 33.8864 168.748 33.6818C169.536 33.4773 170.361 33.3333 171.225 33.25C172.24 33.1439 173.058 33.0455 173.68 32.9545C174.301 32.8561 174.752 32.7121 175.032 32.5227C175.312 32.3333 175.452 32.053 175.452 31.6818V31.6136C175.452 30.8939 175.225 30.3371 174.771 29.9432C174.324 29.5492 173.687 29.3523 172.861 29.3523C171.99 29.3523 171.297 29.5455 170.782 29.9318C170.267 30.3106 169.926 30.7879 169.759 31.3636L165.282 31C165.509 29.9394 165.956 29.0227 166.623 28.25C167.289 27.4697 168.149 26.8712 169.202 26.4545C170.263 26.0303 171.49 25.8182 172.884 25.8182C173.854 25.8182 174.782 25.9318 175.668 26.1591C176.562 26.3864 177.354 26.7386 178.043 27.2159C178.74 27.6932 179.289 28.3068 179.691 29.0568C180.093 29.7992 180.293 30.6894 180.293 31.7273V43.5H175.702V41.0795H175.566C175.286 41.625 174.911 42.1061 174.441 42.5227C173.971 42.9318 173.407 43.2538 172.748 43.4886C172.089 43.7159 171.327 43.8295 170.464 43.8295ZM171.85 40.4886C172.562 40.4886 173.191 40.3485 173.736 40.0682C174.282 39.7803 174.71 39.3939 175.021 38.9091C175.331 38.4242 175.486 37.875 175.486 37.2614V35.4091C175.335 35.5076 175.127 35.5985 174.861 35.6818C174.604 35.7576 174.312 35.8295 173.986 35.8977C173.661 35.9583 173.335 36.0152 173.009 36.0682C172.683 36.1136 172.388 36.1553 172.123 36.1932C171.555 36.2765 171.058 36.4091 170.634 36.5909C170.21 36.7727 169.88 37.0189 169.646 37.3295C169.411 37.6326 169.293 38.0114 169.293 38.4659C169.293 39.125 169.532 39.6288 170.009 39.9773C170.494 40.3182 171.108 40.4886 171.85 40.4886ZM188.89 33.4091V43.5H184.049V26.0455H188.663V29.125H188.867C189.253 28.1098 189.901 27.3068 190.81 26.7159C191.719 26.1174 192.822 25.8182 194.117 25.8182C195.329 25.8182 196.386 26.0833 197.288 26.6136C198.189 27.1439 198.89 27.9015 199.39 28.8864C199.89 29.8636 200.14 31.0303 200.14 32.3864V43.5H195.299V33.25C195.307 32.1818 195.034 31.3485 194.481 30.75C193.928 30.1439 193.166 29.8409 192.197 29.8409C191.545 29.8409 190.969 29.9811 190.469 30.2614C189.977 30.5417 189.591 30.9508 189.31 31.4886C189.038 32.0189 188.897 32.6591 188.89 33.4091ZM204.046 43.5V20.2273H213.364C215.076 20.2273 216.504 20.4811 217.648 20.9886C218.792 21.4962 219.652 22.2008 220.228 23.1023C220.804 23.9962 221.092 25.0265 221.092 26.1932C221.092 27.1023 220.91 27.9015 220.546 28.5909C220.182 29.2727 219.682 29.8333 219.046 30.2727C218.417 30.7045 217.698 31.0114 216.887 31.1932V31.4205C217.773 31.4583 218.603 31.7083 219.376 32.1705C220.156 32.6326 220.789 33.2803 221.273 34.1136C221.758 34.9394 222.001 35.9242 222.001 37.0682C222.001 38.303 221.694 39.4053 221.08 40.375C220.474 41.3371 219.576 42.0985 218.387 42.6591C217.198 43.2197 215.732 43.5 213.989 43.5H204.046ZM208.967 39.4773H212.978C214.349 39.4773 215.349 39.2159 215.978 38.6932C216.607 38.1629 216.921 37.4583 216.921 36.5795C216.921 35.9356 216.766 35.3674 216.455 34.875C216.145 34.3826 215.701 33.9962 215.126 33.7159C214.557 33.4356 213.879 33.2955 213.092 33.2955H208.967V39.4773ZM208.967 29.9659H212.614C213.289 29.9659 213.887 29.8485 214.41 29.6136C214.94 29.3712 215.357 29.0303 215.66 28.5909C215.97 28.1515 216.126 27.625 216.126 27.0114C216.126 26.1705 215.826 25.4924 215.228 24.9773C214.637 24.4621 213.796 24.2045 212.705 24.2045H208.967V29.9659Z" fill="black"/>
</svg>
